<svg xmlns="http://www.w3.org/2000/svg" xmlns:xlink="http://www.w3.org/1999/xlink" width="36" height="37" viewBox="0 0 36 37">
  <defs>
    <clipPath id="clip-path">
      <rect id="Rectangle_11" data-name="Rectangle 11" width="18" height="18" transform="translate(-0.055 0.294)" fill="#ec2326"/>
    </clipPath>
  </defs>
  <g id="Group_502" data-name="Group 502" transform="translate(-0.439 0.213)">
    <ellipse id="Ellipse_3" data-name="Ellipse 3" cx="18" cy="18.5" rx="18" ry="18.5" transform="translate(0.439 -0.213)" fill="#ec2326" opacity="0.15"/>
    <g id="Mask_Group_5" data-name="Mask Group 5" transform="translate(9.494 9.493)" clip-path="url(#clip-path)">
      <g id="_1161953_instagram_icon" data-name="1161953_instagram_icon" transform="translate(0.895 0.597)">
        <path id="Path_13" data-name="Path 13" d="M10.574,6.734A4.364,4.364,0,1,0,14.939,11.1,4.373,4.373,0,0,0,10.574,6.734Zm0,7.16a2.8,2.8,0,1,1,2.8-2.8A2.809,2.809,0,0,1,10.574,13.894Z" transform="translate(-2.118 -2.676)" fill="#ec2326"/>
        <circle id="Ellipse_6" data-name="Ellipse 6" cx="0.989" cy="0.989" r="0.989" transform="translate(12.002 2.966)" fill="#ec2326"/>
        <path id="Path_14" data-name="Path 14" d="M16.919,3.333a4.856,4.856,0,0,0-3.58-1.4H6.315A4.671,4.671,0,0,0,1.371,6.88v6.99A4.906,4.906,0,0,0,2.8,17.518a4.976,4.976,0,0,0,3.546,1.33h6.956a5.035,5.035,0,0,0,3.58-1.33,4.881,4.881,0,0,0,1.4-3.614V6.88A4.888,4.888,0,0,0,16.919,3.333ZM16.783,13.9a3.332,3.332,0,0,1-.989,2.489,3.524,3.524,0,0,1-2.489.887H6.349a3.524,3.524,0,0,1-2.489-.887,3.427,3.427,0,0,1-.921-2.523V6.88A3.4,3.4,0,0,1,3.86,4.39,3.467,3.467,0,0,1,6.349,3.5h7.024a3.4,3.4,0,0,1,2.489.921,3.519,3.519,0,0,1,.921,2.455V13.9Z" transform="translate(-1.371 -1.935)" fill="#ec2326"/>
      </g>
    </g>
  </g>
</svg>
